<svg xmlns="http://www.w3.org/2000/svg" viewBox="0 0 1045.64 730.36"><defs><style>.cls-1{fill:#22b573;}.cls-2{fill:#96c934;}.cls-3{fill:#c36;}</style></defs><g id="Third"><path class="cls-1" d="M415.32,642.93l-39.08-13.57L346,651.5l-7.76,28.86-16-12h-24.1l-27.92,13-41,12.87-44-13.29-38-44.58L138,620.79s-2.88,3.41-15.8,5.49-24.7-2.74-24.7-2.74-23.56-35-44.22-42.18c-19.36-6.71-37,5-41.08,20-2.58,9.47-6.08,40.32,0,50.16a75.11,75.11,0,0,0,33.08,28.84c16,7,59,23,71,26l69,18,47.36,5.76a34,34,0,0,0,4,.24h94.61c64-1,85-12,92-19s12-17.13,12-17.13Z"/><path class="cls-1" d="M715.24,565.36l7-12s11-16.6,17-9.3-3.09,10-6.54,37.64-1.46,42.66,6.54,52.66,17,19,22,23-5,16-5,16-4,19-8,23-23,16-23,16H702.17l9.07-25,16-12,5.17-23.58-5.17-14.42-6,3-5,16-6,18-17,24-21.6,14-30.4-6-29-26-8-33,16-13,17,21,15,5,21-9,25-59Z"/><path class="cls-2" d="M477.54,277.32s14.67-8.14,21.69-3.55,12.46,15.81,10.24,34.7-27.91,52.89-44.57,66.89-50.83,18.5-69.74,17.75-50.84-18.75-81.38-23.75-80.69-15-114.11,0-50,38.52-61.71,71.26-13.72,66.74-9.72,97.74,29,87,41,102,25.68,39.78,46.34,43.39,47.66-14.39,66.66-22.39,47-10,48-5,13-33,24-37,30-13.54,57-2.27,30,43.27,33,48.27,14,8,31,4,75-31,99-49,55-44,122-121,123-55,145-46,56,33,61,48,8,62.67,0,80.34-14,28.66-34,39.66-30,14-53,13-42-12-47-21-6.21-21.18-3.1-35.09,7.1-21.91,19.1-25.91,36,8,40,4,9-3,11-13-5-17-14-20-28-4-43-2-33,9-38,18-19,33-29,48-21.19,45.54-28,58c-4.1,7.53-10.51,19.23-27,22-13.84,2.32-22-3.83-25.5-8.41s-10.5-15.59-15.5-12.59-5,14-1,24,12.78,18.54,25,27c13,9,33,8,39,5,11.67-5.83,30-36,33-46s4-23,10-23,17-1,16,6,2.32,25.87-6,40c-10,17-20.33,24.81-20,26,.52,1.86,17,1,24-5,9.15-7.83,14-14,15-24s9-19,11-19,7,3,6,8-8,11.88-8,16c0,8-3,16-11,23-9.06,7.93-17,11-27,12s-27,0-26-7,7.15-9.45,16-22c7.3-10.34,11-14,13-22,1-4,2.37-15.12,2.77-18.75a1,1,0,0,0-1.73-.71c-.57.77-.89,4.89-1,6.46-1,11-2,14-6,21-5.78,10.13-24.53,35.13-31,38-9,4-12.83,4.66-23.91,5.33s-27.09-2.33-38.09-13.33-18-18.5-24-31c-2.39-5-7-26-7-26l26-18s10.33,4.94,11,9c1,6,3,9,3,9s6,1,8,2,3,7.19,3,7.19,3-4.19,7-4.19a37.84,37.84,0,0,1,8,1s9-9,14-17,13-32,19-43,13-24,23-44,16-27,36-38c10-5.49,33-6,48-6s34,7,40,12,13,16,12,25-1,18-12,26-15,4.48-22,4-15-7-20-6-15.74,4.91-18,16a28.2,28.2,0,0,0,5,23c3,4,14,10,28,10s37-6,46-12,18.36-14.92,23-37c4-19,6.6-40.51,2-52-4-10-21-31-43-41s-52-9-69-3-52,36-77,69-66,75-69,79a105.29,105.29,0,0,1-8,9s-32,24-49,34-80,32-106,36-34,9-36,5-6-7-6-16-4-25.53-10-33.76-23-17.24-35-13.24-25,16-26,25-2.21,20.91,5.4,24.45,17.6,9.55,20.6,5.55l3-4s-11-6-11-13,0-11,7-15,13.83-1.25,19.92,4.38,9.37,17.53,5.73,22.07-5.65,19.55-17.65,21.55-26,1-31-3-15.8-12.09-16.4-18.55-2.6-.45-7.6-3.45-9-13-15-12-16,2-27,10-17,12-34,15-36,2-51-1-44.9-23.06-50-31c-9-14-15-22-29-53-5.13-11.37-19.87-46.18-27-94-4.71-31.66-9-57,10-99s39-54,61-68,57-19,72-20,70,2,86,7,25,6,25,6-3-12-2-19,2.84-14.78,12.92-16.89,25.14.75,31.11,6.82,10,13.07,9,16.07-13-3-14,3-4,18,6,20,24,8,38,3,33-20,39-33,5.74-24,6.87-31.5,1.43-15.54,1.43-15.54"/><path class="cls-2" d="M31.46,657.66a4.53,4.53,0,0,1-.12-6.3c3.25-3.54,7.9-9.84,7.9-17,0-11-5-24-10-24s-11.69,0-12.85,2-14.15-11-14.15-11,1-9,6-14,17-13.36,28-14c19-1.1,32.31,4.67,40,11,10.4,8.56,20.87,24,26.44,30s7.56,13,5.56,23-6.24,19-13.62,18a19,19,0,0,1-14.77-10.08c-2.61-4.92-.61-21.92-5.61-28.92a23.21,23.21,0,0,0-7-6.69,2,2,0,0,0-3,1.75L67,614.16a10.34,10.34,0,0,1,2,2.74l1.9,3.79a19.83,19.83,0,0,1,1.84,5.72c.86,5.31,3.66,15.11,1.49,26-1,5-4,9-12,13s-14,4-21.69,0C38.18,664.13,34.24,660.43,31.46,657.66Z"/><path class="cls-2" d="M78.24,651.36s1,5-4,10-12.87,11-17,11c-7,0-4.14.33-7,.15a34.49,34.49,0,0,1-11.64-2.91,24.25,24.25,0,0,1-10.38-8.83l-1.91-4.15a7.09,7.09,0,0,1-.43-4.67l7-8.59a10.9,10.9,0,0,0,2.43-6.86v-4.79a28.8,28.8,0,0,0-1.28-8.5l-2.1-6.07a11.78,11.78,0,0,0-1.12-2.27,3.37,3.37,0,0,0-2.82-1.51H22.24l-.31-.31a2,2,0,0,1,.3-3l1-.68-21-8s-4.29,20.8-1,37,14.18,27.8,17,32c1,1.42,14.85,10.14,16,11,8,6,48,24,68,28s69,13,76,14l7,1a105.42,105.42,0,0,1-32-16c-8-6-12-16-12-16s-25.84-3.12-35.5-8.42c-6.5-3.58-14.5-7.58-18.5-14.58S78.24,651.36,78.24,651.36Z"/></g><g id="Second"><path class="cls-1" d="M503.62,315.29s18.3-45.66,48-47.29,57.66,1.36,71.66,15.36,12,29,0,55-49,80-67,94-81,71-133,74-63-18-81-18-34,12-34,26,17,42,45,50S454,569.8,491.61,547.58s116.63-85.22,145.63-115.22,72-70,109-79,93-11,127,5,62,35,77,72,30,86,30,86,3-7,15-2,33,12,35,32-3,29.93,0,41,13,6,.49,26.49-30.49,39.54-46.49,39.54-34-5-34-13,6-29,6-29-8.8,26-35.9,42-78.1,47-128.1,29-77-49-74-97,36-69,58-69,44-4,56,10,8.29,21.91,2,31-31-3.27-41-3-19,11-22,18-5,27,0,35,26,25.31,47,22.66,70.62-10.36,79-54.66c7-37,11-54-6-77s-25-33-65-44c-42.47-11.68-61,2-107,31-26.56,16.75-82.07,99.29-132,132.15s-93.58,58.91-113.77,58.88-30.2,4-33.2-2-6-30-20-41-39-18-57-7-29,31-30,41-5-9-13-9-30,1-43,11-46.32,16.78-61.66,14.39-45.34-26.39-63.34-66.39-38.69-79.24-26.34-144.12S157,383.36,193.13,369.36s70.94-11.53,105-7.26,70.91,25.53,97,25.4,51-3.21,72.54-22.17,35.92-50,35.92-50"/></g><g id="Top"><path class="cls-3" d="M669.57,268s-10.33,42.36-27.33,75.36-56,86-96,114-87,57-124,62-66-8-66-8l-5-5a16.58,16.58,0,0,0-15.19-4.6c-3.81.83-7.55,2.67-8.85,6.56-3,9-5,16.15,3,22.2,9,6.8,45,26.8,89,19.8s83-20,146-73,97-91.09,134-112,63.86-29.55,106-31,81.68,19,99.14,31c27.86,19,41.86,30,60.86,77,16.72,41.35,19,52,19,52l8,11-22,28,9,23a349.54,349.54,0,0,1-12-43c-4-19-12.24-37-15-48-6-24-25-50-61-83-20.24-18.55-73-27-102-23-30.51,4.21-58.91,16-58.91,16s-36.09,18-67.09,49-109,101-147,122-71,28.54-105,34c-30.12,4.84-65-4-83-18s-31.29-31.7-30-44c2-19,8.88-29.16,18-36,12-9,36-8,48,2s19,13,39,12,44-4.81,80-27,68-44,87-67c20.89-25.29,41.57-50.55,47-70s1-39,1-39L669.57,268"/><path class="cls-2" d="M1043.24,603.36c2-2,3-4,2-6s-5,0-5-17,2-28-4-42-15-22-24-29-28-15-28-15,2,6,1,9c-.81,2.44-3.82,4.18-4.93,4.74l-.4.2h0c-8.58,4.14-14.67,14.47-14.67,26.56,0,15.74,10.3,28.5,23,28.5,12,0,21.92-11.47,22.92-26.08l-2.42-2.42s-5.59-5.19-9.5-6.5c-6-2-8,0-10,1-1.26.64-2,3-2,5s2.4,3.14,3.54,4a1.53,1.53,0,0,1,.16,2.31h0a1.54,1.54,0,0,1-1.69.32c-1.58-.67-4.53-2.36-5-5.63-.36-2.5,0-8,5-10,5.65-2.26,10-2,16,2a51.49,51.49,0,0,1,5.9,4.76l0-.23,4.13,4.47s9,17,10,23-1,10.1-2,15a53.27,53.27,0,0,0,0,17c2,12,5.53,18.76,1,26-5,8-8,11-13.08,14.43-2.56,1.73-7.57,4.89-11.93,7.61v0s-10.07,6.46-15,7a100.14,100.14,0,0,1-12,0c-4.12,0-7-3-10-6-2.55-2.55-5.36-10-4.71-12.48.87-3.19,4-4.51,5.64-5a1.52,1.52,0,0,1,1.64.53h0a1.52,1.52,0,0,1-.43,2.27c-1.23.72-3.75,1.56-4,3.55s.22,4.42,1.4,5.2c1.86,1.23,3.61,3.45,9.81,2.18,4-.83,10.2-5.33,10.2-5.33l2.68-2.11c.76-14.62-7.69-27.19-19.65-28.62-12.61-1.51-24.35,9.94-26.22,25.57-1.44,12,3.38,23,11.41,28.11h0c.12.08,5.22,4.13,10.22,5.13s14,4.35,23,2c7-1.81,11-3,11-3s7-3,15-7,20-16,20-16l2-9s5-1,5-4,1-4,1-4,3-1,3-4-4-4-1-4,5,0,5-4S1041.24,605.36,1043.24,603.36Z"/></g><g id="Arm"><path class="cls-1" d="M32.31,185.42c5.4-1.47,28.39-7.91,45.59-11.07S113,164.56,117.65,154s13.47-22.73,14.46-30.86-3.53-23.07.69-28.6,20-13.38,28.44-14.49,9.86.93,12.44,2.49,2.82,6.7,2.33,9.15-9.18,7.86-14,16.07-12.69,34.71-12.69,34.71L179.7,118s-1.48,1,.73-3.68,4.66-10.55,8.58-11,24.7-2,28.29,2.21,7.17,6.59,7.1,9.54-2.76,10.07-9.63,12.52a79.89,79.89,0,0,1-14.71,3.44s-6.88,2.51-10.68,5.55-30.94,22.32-30.94,22.32,3.36,4,16.36,2.79S212,155.74,212,155.74s1.95-3.93,4.81-2.84,15.34,12.52,15.34,12.52,7.87,14.32-1,20.21-12.61.48-20.41-2.58-45.31-.35-45.31-.35-6.38,0-6.63,1.22,16.35,13.94,18.11,14.7,6.18,4.18,10.84,6.39,7.36,7.85,6.13,14-4.11,17.55-3.77,17.36-9.79,8.24-15.88,2.43-12.23-26.16-12.23-26.16l-20.48-19.05a3.37,3.37,0,0,0-5.34,2.82l.32,41.74s6.87,10.3,5.89,15.21l-4.17,20.84s9.81,14.72,16.19,21.09,38.87,37.26,38.87,37.26-26.56,6.32-39.08,16.42-25,21.62-30.18,28.24-5.89,10.31-5.89,10.31l-10.06-26.24a155.57,155.57,0,0,1-7.47-20.81c-2.84-10.58-5.58-28.78-5.44-32.68a47.88,47.88,0,0,0-.75-8.77L97,279.13a56.84,56.84,0,0,0-.18-15.74l-.17-.2a15.08,15.08,0,0,1-2.85-13.28l13-49.91a6.52,6.52,0,0,0-4.22-7.82,36.78,36.78,0,0,0-3.84-1.13c-2.46-.49-32.13,7.61-39.49,12.52S46.54,216.32,40.9,219s-13.24,2.46-16.68.49-9.32-10.34-7.48-13.38,7.52-17.72,7.52-17.72A37.8,37.8,0,0,1,32.31,185.42Z"/><path class="cls-2" d="M89,300.51l1.4,16.3a125.19,125.19,0,0,0,7.43,33l4.83,12.94s-10.79,2.94-12,9.07,3.19,15.94-2.2,23.79-8.09,8.59-9.32,14.72-.24,20.36-.24,20.36S65.74,417,66.15,411.58s5.39-14.23,2.69-19.87-13.74-27-11.54-38,10-31.15,18.39-41S89,300.51,89,300.51Z"/><path class="cls-3" d="M144.38,96.86S130.64,82.64,126,80.43c-6.78-3.21-19.29-5.13-19.29-5.13s16.34-12,29.59-8.11A60.7,60.7,0,0,1,155.49,77a19.9,19.9,0,0,0,5.75,3c3.54,1.18,8.72,3.63,7.9,7.72-1.49,7.46-8.49,4.75-11.52,2.88a5.78,5.78,0,0,0-5.9,0Z"/><path class="cls-3" d="M193.75,108.85s-2.54-19.61-5-24.16c-3.52-6.63-12.42-15.63-12.42-15.63s20.3.09,28.59,11.15a60.77,60.77,0,0,1,9.54,19.37,19.66,19.66,0,0,0,2.8,5.86c2.14,3.06,4.83,8.12,1.74,10.91-5.65,5.09-9.65-1.27-11-4.57a5.78,5.78,0,0,0-4.7-3.57Z"/><path class="cls-3" d="M215.58,159.12s10.89-16.5,12-21.53c1.66-7.32.8-20,.8-20s15.31,13.33,14.37,27.11a60.7,60.7,0,0,1-5.42,20.9,19.88,19.88,0,0,0-1.71,6.27c-.38,3.72-1.64,9.31-5.81,9.4-7.6.17-6.48-7.26-5.32-10.62a5.76,5.76,0,0,0-1.23-5.77Z"/><path class="cls-3" d="M184.29,213.28s19.23-4.59,23.5-7.48c6.21-4.21,14.23-14,14.23-14s2,20.2-8.06,29.6a60.7,60.7,0,0,1-18.26,11.54,19.86,19.86,0,0,0-5.53,3.41c-2.82,2.45-7.56,5.66-10.67,2.88-5.66-5.08.24-9.73,3.39-11.39a5.79,5.79,0,0,0,3.05-5.05Z"/><path class="cls-3" d="M35.23,193.45S22.61,181.83,20.93,178c-2.45-5.56-3-15.63-3-15.63S4.22,174.85,6.68,185.6a41.39,41.39,0,0,0,7.68,15.8,13.28,13.28,0,0,1,2.38,4.73c.79,2.88,2.66,7.13,6.8,6.67,7.56-.84,5.63-6.56,4.11-9.07a3.92,3.92,0,0,1,.58-4.71Z"/></g><g id="Head"><path class="cls-1" d="M780.24,250.36H749.79l-13.55-6-92.9-134.81L621.13,98.36l-3.89-7-39-29.56-50.5-24.66L514,56.53l-29.39-4.86L472.24,30.36l5.3-20.8H455.7l-18.46,20.8V65.83l4.83,8.55-3.15,1.54,52.69,62.81,27.63,58.63v41l-63.54-29-41.46,7-19.08,42.43,7.18,34.07,19.9,11.5,21-34,21.66-.22,30.34,17.22,12,40,15.73,38,29.27,10,26-22.93,5-10.07,7-4,29.58-29.89,24.82-15.61,16.6-20.5,22-6,3-11,44,26,37,16,22-1,16-12ZM451.05,63.55c2.19-5.19,8.16-16.49,8.16-16.49l8.49,4.61,4.71,7.89,1-.67L467.7,70.3Z"/><path class="cls-3" d="M570,126.87c-3.1-1-6.3-2-8.36-2.56-5.18-1.34-7.85-3.23-11-16S542.1,88,532.31,82s-22,6.52-27.53,10.77c-1.59,1.22-7.43,3.64-12.68,5.68a.75.75,0,0,0,.42,1.44c6.57-1.31,15.45-1.66,18.36-1,8.38,1.92,11,4,12.77,9.84,2.91,9.65,3.13,14.24,7,22,3.13,6.26,9.77,7.84,12,8,5,.34,10.54-3.32,13.46-6.7,1.56-1.82,7.52-3.58,13.41-3.12A1,1,0,0,0,570,126.87Z"/><path class="cls-3" d="M516.24,166.36c-8-19-20.67-34.1-31-46-16.62-19.15-20-21-30.77-35.12C444.37,72,444.24,71.36,442.24,56.36c-1.59-12,3-21,7-29s16-10,16-10v-4a9,9,0,0,1,1-5,21.81,21.81,0,0,1,4-5c1-1,4-1,4-1s-6-4-18.72-1.59-19.28,10.59-25.28,20.59c-4.67,7.79-6.31,19.22-6.8,30a1.18,1.18,0,0,0-.2,0,86.56,86.56,0,0,0-4.89,7.3c-1.88,3.3-7.11,7.7-13.11,20.7-4.78,10.37-7.25,21.49-4,28,2,4,6,0,10-3,3.58-2.68,6-6,11.84-7.75,4.14-1.24,8.52-2.86,10.72-3.69a1.33,1.33,0,0,0,.69-1.89c-1.77-3.17-6.88-11.33-8.88-19.07,3.08,7.69,8.55,14.28,12.63,20.4,6,9,19,23,31,35s23.91,26.55,29,38a79.36,79.36,0,0,1,5.67,16.6c-3.71-1.08-14.7-4.17-27.67-6.6-16-3-22-3-25-6s-7-6-7-13,1-5,0-7-6-5-8-5-12.06,1.85-16,5.42-9,7.58-9,17.58a39.72,39.72,0,0,0,9,25.06,44.09,44.09,0,0,1,6,9.82c-4.93-.72-7.66-3.74-10.93-1.88-7,4-9.87,5.88-19,15-5,5-14,15-15,34s2,31,7,43,11,16,19.25,19.43c7.08,2.93,10.53,4.36,9.72,3-2-3.39-5-8.39-5-14.39s5-10,5-12.29-2-.71-4-2.71-4-4-5-8.07-1-10.93,0-21.29,7.54-23.46,21-28.64c13-5,26-5,36-2,13,3.91,26.06,7.24,39,19,11,10,22,18,23,17s5-5,2-49C527.81,191.32,523.22,182.94,516.24,166.36Z"/><path class="cls-2" d="M465,22.68c-.11,2.46-.07,4.93,0,6.88a23.12,23.12,0,0,0,2,8.5c.57,1.27,3.07,7.92,4.25,9.3,6,7,8,9,15,13,7.47,4.27,17,4,23,3s11-6,14-10,5.91-8,7-9,8.24,2.61,17,8c13,8,22,14,32,22,9.41,7.53,26,24,26,24a59.23,59.23,0,0,1,6-4l6-3s-13-15-23-23-27-19-35-24-28-15-31-16-7,1-9,2-5,14-8.65,18-12.53,2.49-18.35,0c-7-3-10-6-13-12-2.86-5.72-1-12-1-12s6-1,8-4c3-4.48,2.54-8.21,1.13-10.93-2.13-4.07-3.13-5.07-7.13-7.07a11.45,11.45,0,0,0-10,0c-2.82,1.42-4,3-5,7-.76,3.07,0,8,0,8Z"/><path class="cls-2" d="M573.24,315.29c-9-3.93-17-5.93-24-4.93s-13.9,10-17,16-1,18,4,22a25.18,25.18,0,0,0,9.61,3.86l.67.06a7.36,7.36,0,0,0,7.5-7.94l-.29-4.4a2.3,2.3,0,0,1,4.12-1.54l.24.32a.75.75,0,0,1,.07.12,22.28,22.28,0,0,1,1.51,5.3l.57,3.69A18.37,18.37,0,0,1,557.86,360l-.79,1.33a7.6,7.6,0,0,1-3.5,3.11c-5.54,2.42-12.84,3.81-18-.5-3.84-3.19-8.29-6.62-12.29-13.62-4.57-8-7.32-20.14-11.66-35.07s-8.93-25.42-17.34-35.93c-8-10-15-15-25-18-9.62-2.89-14-3-23-2s-12.49,4.37-17,10c-4,5-5.17,6.22-10,13l0,0-2.47,4.08,0,.06-2.48,4.84a28,28,0,0,1-1,3c-.21.64-.42,1.41-.62,2.24a16.83,16.83,0,0,0-1.38,6.76c0,7.73,4.93,14,11,14s11-6.27,11-14c0-.14,0-.29,0-.44s0,0,0-.07v-7.22a18.82,18.82,0,0,1,2.4-9.25c2-3.59,4.29-6.58,8.6-8a33.06,33.06,0,0,1,22,0c8,3,11.69,6,16.35,11s10.22,19.62,12.65,33c2,11,3.45,13,10,30,5,13,10,23,22,28s21,6,32,2,18-10,23-19,6-23,4-29S582.23,319.22,573.24,315.29Z"/><path class="cls-2" d="M793.24,247.36c-2-2-17-10-21-9s-11.24,5.41-20.12,5.2c-6.38-.14-11.89-5.57-16.11-10.76-1.31-1.71-2.77-3.6-4.34-5.63v0h0c-10.41-14.78-26.41-35.78-34.41-47.78-7.54-11.31-21-30-31-46-2.37-3.79-16-24-21-30s-13-9-18-10-10,1-15,4-12,8-16,14-3,17-2,24,4,12,10,18,14,6,20,5,9-3,12-8,3.78-8.43,3-14-3-9-6-11a6.63,6.63,0,0,0-8,0c-2.35,1.57-4,5-6,6s-4,0-5-3,1-7,3-8.76,5.9-3.24,11-3.24,12.46,4.65,17,11c5,7,18,24,18,24s21.84,34.4,40,58.95c4.84,7.14,13.43,19.47,22,30.05,6.71,8.25,15,22,23,23a67,67,0,0,0,20,0c7-1,12-5.89,14-2.94s11,17.94,11,20.94-6,8-11,8-13,1-26-3-32-15-46-23-30-21-36-26C669,233,664.52,228.63,662.9,227a.53.53,0,0,0-.06-.1,14.25,14.25,0,0,1-2.6-4.56c-.55-1.67-.11-4.15.35-5.9a6.36,6.36,0,0,1,2.81-3.83c.72-.43,1.84-.83,1.84-.27,0,1,0,.16-1,2s-2,3.64-2,6,2,5,3,6,4,2,7,2c3.17,0,5,0,7-5s2-12-1-15-7.15-7.15-13.57-7.57-11.54,1.41-14.43,3.57c-4,3-6,5-7,9-.87,3.5-1,5.9-1,11,0,3,2.37,6.74,3,8s2.73,3.22,4.5,4.82a104.35,104.35,0,0,0,18.56,15.69c12.94,8.49,44.94,30.49,68.94,40.49s39,16,50,15,19-3,24-8,7-8,7-13S795.24,249.36,793.24,247.36Z"/><path class="cls-2" d="M646.24,265.36c-7,9-20,17-23,18s-11,11-19,17-26,13-26,13,7,8,9,11.48,3,13.52,3,13.52l10-4s15-9,20-16,10-13,10-13,14-2,20-8,8-15,8-15,4-1,14-6,11-10,11-10l-28-19A50.49,50.49,0,0,1,646.24,265.36Z"/><path class="cls-2" d="M465.3,75.91c4.48-.17,8.4-2,10.66-6A12.66,12.66,0,0,0,474.89,56c-3.14-4.24-8.09-9.12-9.47-11.9-.82-1.67-1.92-3.69-2.86-5.37a3,3,0,0,0-4.71-.74,22.7,22.7,0,0,0-3.06,4.19,41.73,41.73,0,0,0-4,12.41c-.74,4.55,0,10.6,2.16,14.48S460.82,76.08,465.3,75.91Zm-4.39-23.69c.65-1.18,1.92-.29,2.43,1,1.4,3.62,3.21,6.17,4.1,8.48,1.4,3.61-3.23,5.61-6,2.73-1.67-1.72-2.22-3.89-2.21-6.54A10.11,10.11,0,0,1,460.91,52.22Z"/></g></svg>